<?xml version="1.0" standalone="no"?>
<!DOCTYPE svg PUBLIC "-//W3C//DTD SVG 20010904//EN"
 "http://www.w3.org/TR/2001/REC-SVG-20010904/DTD/svg10.dtd">
<svg version="1.0" xmlns="http://www.w3.org/2000/svg"
 width="300.000000pt" height="156.000000pt" viewBox="0 0 300.000000 156.000000"
 preserveAspectRatio="xMidYMid meet">
<metadata>
Created by potrace 1.10, written by Peter Selinger 2001-2011
</metadata>
<g transform="translate(0.000000,156.000000) scale(0.100000,-0.100000)"
fill="#000000" stroke="none">
<path d="M1753 1516 c-43 -20 -62 -52 -69 -122 -5 -51 -3 -63 15 -86 21 -27
74 -48 118 -48 12 0 36 12 54 28 25 20 31 23 26 9 -4 -10 -7 -21 -7 -23 0 -3
-4 -2 -10 1 -17 10 -12 -98 6 -123 15 -21 16 -21 47 -6 18 9 35 21 39 27 11
18 -2 34 -25 32 -32 -4 -33 -4 -17 -15 13 -9 12 -12 -4 -25 -19 -15 -36 -12
-36 6 0 6 5 7 10 4 10 -6 13 17 11 90 -4 99 -25 124 -66 77 -14 -15 -25 -33
-25 -41 0 -11 -4 -9 -14 5 -8 10 -18 16 -22 12 -4 -4 -13 -3 -20 2 -6 6 -18 9
-25 8 -9 -2 -12 8 -10 37 5 80 19 104 74 130 29 13 45 25 37 25 -8 0 -24 2
-35 5 -11 3 -34 -2 -52 -9z m110 -213 c-8 -21 -20 -15 -18 10 4 32 4 33 14 18
5 -8 7 -20 4 -28z m-98 -11 c-3 -3 -11 0 -18 7 -9 10 -8 11 6 5 10 -3 15 -9
12 -12z m45 -12 c8 -5 11 -10 5 -10 -5 0 -17 5 -25 10 -8 5 -10 10 -5 10 6 0
17 -5 25 -10z"/>
<path d="M765 1490 c-38 -10 -73 -19 -77 -19 -4 -1 -22 -15 -40 -32 -37 -35
-46 -35 82 -5 36 8 72 15 82 16 16 0 30 -42 42 -133 4 -34 3 -38 -12 -32 -42
17 -78 24 -134 26 -53 2 -64 -1 -80 -20 -25 -31 -23 -41 15 -91 47 -63 55 -80
62 -135 8 -63 -6 -84 -63 -92 -38 -5 -60 -23 -29 -23 6 0 4 -5 -6 -11 -25 -15
-11 -29 30 -29 57 0 111 37 124 84 18 65 -4 163 -46 212 -19 21 -35 42 -35 47
0 4 -5 7 -11 7 -12 0 15 -48 37 -65 21 -16 44 -96 44 -152 0 -40 -5 -57 -22
-76 -22 -24 -86 -52 -96 -43 -9 10 10 25 38 31 38 8 58 47 53 99 -4 29 -2 37
9 31 7 -3 5 0 -4 8 -10 8 -19 29 -21 47 -3 20 -14 42 -29 55 -14 12 -31 33
-38 45 -11 21 -10 26 8 40 19 16 45 17 102 6 14 -3 40 -7 59 -10 19 -3 39 -10
45 -16 5 -5 17 -10 25 -10 12 0 12 3 3 12 -15 15 -16 32 -2 23 6 -3 10 -2 10
4 0 5 -4 13 -10 16 -16 10 -12 25 5 19 21 -8 20 -73 -1 -81 -9 -3 -50 1 -92 9
-43 8 -84 12 -92 9 -8 -3 10 -9 40 -13 142 -20 157 -20 166 -7 24 40 -30 271
-64 268 -4 0 -38 -9 -77 -19z m75 -20 c-14 -4 -32 -8 -40 -9 -13 -1 -13 0 0 9
8 5 26 9 40 9 l25 -1 -25 -8z m23 -55 l6 -40 -13 35 c-7 19 -11 39 -9 43 7 12
10 6 16 -38z m-178 -235 c10 -11 16 -20 13 -20 -3 0 -13 9 -23 20 -10 11 -16
20 -13 20 3 0 13 -9 23 -20z"/>
<path d="M1270 1493 c0 -5 -40 -8 -88 -8 -76 0 -91 -3 -116 -22 -16 -13 -25
-23 -20 -24 37 -2 223 3 239 7 26 6 28 54 3 54 -10 0 -18 -3 -18 -7z"/>
<path d="M2070 1484 l-35 -17 45 -8 c25 -4 68 -8 96 -8 28 -1 66 -4 83 -7 30
-6 31 -8 24 -47 -5 -32 -2 -43 12 -54 11 -7 14 -13 8 -13 -7 0 -15 5 -18 10
-3 6 -14 10 -23 10 -27 -1 16 -30 44 -30 27 0 34 17 34 80 0 80 -17 92 -136
97 -78 3 -106 0 -134 -13z m217 -17 c0 -9 -9 -12 -26 -8 l-26 5 25 7 c14 4 25
7 26 8 0 1 1 -5 1 -12z m36 -110 c8 -6 7 -7 -3 -4 -9 2 -16 17 -16 38 -2 31
-1 31 3 4 3 -16 10 -34 16 -38z"/>
<path d="M2140 1394 c0 -37 -9 -63 -40 -116 -22 -39 -40 -72 -40 -76 0 -3 -7
-14 -17 -24 -20 -22 -12 -33 19 -24 35 9 40 15 82 97 41 79 47 124 25 166 -19
36 -29 27 -29 -23z m-19 -127 c-10 -9 -11 -8 -5 6 3 10 9 15 12 12 3 -3 0 -11
-7 -18z m-21 -37 c-6 -11 -13 -20 -16 -20 -2 0 0 9 6 20 6 11 13 20 16 20 2 0
0 -9 -6 -20z"/>
<path d="M1140 1326 c0 -85 -9 -138 -21 -130 -5 3 -6 10 -3 16 13 21 -89 -1
-111 -23 l-20 -21 77 6 77 6 -5 -68 c-8 -101 -21 -205 -29 -224 -5 -13 -2 -18
9 -18 10 0 16 9 16 25 0 14 4 25 9 25 5 0 7 9 4 21 -4 15 0 22 16 26 11 3 21
10 21 15 0 6 -7 8 -15 4 -17 -6 -17 -4 -17 74 -1 125 -3 118 45 123 l42 4 -42
1 c-34 2 -43 6 -42 20 0 10 3 12 6 5 7 -18 33 -16 33 2 0 8 -9 15 -20 15 -14
0 -20 6 -19 23 1 16 2 18 6 5 9 -36 23 -16 23 32 0 44 -21 110 -35 110 -3 0
-5 -33 -5 -74z"/>
<path d="M967 1349 c-40 -33 -42 -36 -27 -59 7 -12 12 -12 29 4 12 11 21 27
21 37 0 10 7 22 16 27 9 5 12 12 7 15 -5 3 -26 -8 -46 -24z"/>
<path d="M1240 1335 c-23 -13 -23 -14 -5 -20 11 -4 41 -15 67 -26 60 -24 68
-24 68 4 0 23 -5 26 -94 52 -6 2 -22 -3 -36 -10z"/>
<path d="M1200 1215 c0 -17 18 -19 53 -6 13 5 29 6 36 1 9 -5 4 -10 -14 -14
-15 -4 -49 -28 -76 -53 -41 -39 -48 -50 -43 -72 10 -40 22 -47 30 -15 11 41
31 59 49 44 8 -7 15 -18 15 -25 0 -19 -67 -58 -88 -51 -11 4 -8 -1 6 -12 13
-9 35 -27 50 -40 l27 -23 -25 6 c-24 6 -24 5 3 -10 46 -27 64 -8 72 77 4 40
13 97 20 126 19 75 14 82 -56 82 -46 0 -59 -3 -59 -15z m55 -74 c-4 -17 -11
-31 -16 -31 -11 0 -11 0 2 39 14 39 23 34 14 -8z m48 13 c-3 -8 -10 -14 -17
-14 -6 0 -4 -4 4 -10 8 -5 11 -12 7 -16 -4 -4 -12 -3 -19 4 -8 8 -8 15 2 27 8
10 9 15 1 15 -6 0 -11 4 -11 9 0 5 9 7 19 4 12 -3 17 -11 14 -19z m-93 -33 c0
-6 -4 -13 -10 -16 -5 -3 -10 1 -10 9 0 9 5 16 10 16 6 0 10 -4 10 -9z m74 -93
c-3 -35 -10 -67 -15 -72 -4 -5 -5 1 -2 14 5 17 3 21 -7 15 -8 -5 -11 -4 -6 3
10 16 -15 27 -25 11 -8 -12 -8 -1 0 40 1 2 7 -2 14 -8 17 -13 28 -5 20 15 -5
13 12 44 24 44 2 0 1 -28 -3 -62z"/>
<path d="M946 1209 c-2 -8 -10 -48 -16 -89 -7 -41 -16 -94 -20 -118 -5 -32 -4
-42 5 -38 7 2 17 0 22 -5 6 -6 10 -5 10 3 0 35 26 117 39 122 9 3 12 1 9 -4
-8 -14 18 -13 32 1 6 6 9 19 5 28 -5 13 -3 14 10 4 8 -7 18 -10 21 -6 4 3 18
-4 31 -16 l25 -23 -1 31 c-1 17 -5 31 -10 31 -5 0 -6 -4 -3 -10 3 -5 1 -10 -4
-10 -15 0 -14 12 5 38 19 28 16 28 -48 -3 -68 -33 -85 -46 -97 -76 l-10 -24 0
23 c-1 13 6 30 14 38 19 19 19 54 0 90 -10 19 -16 23 -19 13z m-9 -181 c-3 -8
-6 -5 -6 6 -1 11 2 17 5 13 3 -3 4 -12 1 -19z"/>
<path d="M1160 1154 c0 -8 5 -12 10 -9 6 4 8 11 5 16 -9 14 -15 11 -15 -7z"/>
<path d="M2100 1136 c-10 -13 -10 -16 4 -16 10 0 14 5 11 10 -3 6 -2 10 4 10
5 0 12 -4 16 -9 7 -12 -58 -33 -78 -25 -10 3 -17 1 -17 -5 0 -6 -8 -11 -17
-11 -15 0 -16 2 -3 10 64 40 -147 -17 -235 -64 l-40 -21 38 -3 c32 -3 66 4
170 34 14 5 17 -1 17 -39 0 -40 -3 -46 -29 -57 -16 -6 -38 -21 -48 -32 -18
-21 -18 -21 17 -15 19 3 42 7 50 9 11 2 14 -4 12 -24 -1 -16 2 -28 7 -28 5 0
11 -8 13 -17 3 -15 4 -15 19 0 17 16 15 72 -2 61 -5 -3 -6 -10 -3 -16 4 -7 2
-8 -4 -4 -28 17 -10 34 41 40 28 4 69 10 91 13 l38 6 -7 -32 c-5 -24 -3 -31 9
-31 9 0 16 -5 16 -11 0 -5 -3 -8 -7 -6 -5 3 -17 1 -28 -4 -16 -6 -12 -8 17 -8
23 -1 40 5 45 14 15 25 -4 214 -25 249 -21 36 -70 48 -92 22z m92 -62 c5 -16
6 -37 4 -47 -2 -9 0 -15 5 -11 5 3 9 -28 9 -72 0 -67 -2 -75 -15 -64 -18 15
-21 44 -2 34 8 -6 8 -3 -2 9 -7 10 -11 27 -7 40 3 13 3 27 -1 30 -3 4 -6 26
-7 49 -1 24 -5 49 -10 57 -6 9 -5 12 5 9 7 -2 17 -18 21 -34z m-207 -1 c-11
-7 -26 -13 -34 -12 -9 0 -4 5 12 11 15 5 24 14 21 20 -5 7 -2 8 6 3 10 -6 9
-11 -5 -22z m160 7 c3 -10 10 -42 14 -70 7 -41 5 -50 -7 -50 -8 0 -12 6 -8 15
4 10 -1 15 -15 15 -11 0 -18 -3 -16 -7 3 -5 -19 -8 -49 -9 -43 0 -54 3 -54 15
0 9 -7 27 -16 39 -9 13 -14 24 -13 26 4 2 140 43 151 45 4 0 9 -8 13 -19z
m-66 -137 c3 -2 -9 -3 -27 -1 -18 1 -32 6 -32 10 0 8 49 0 59 -9z m48 11 c-3
-3 -12 -4 -19 -1 -8 3 -5 6 6 6 11 1 17 -2 13 -5z"/>
<path d="M2067 1133 c-10 -9 -9 -23 1 -23 5 0 9 7 9 15 0 17 -1 18 -10 8z"/>
<path d="M1701 962 c0 -81 4 -154 9 -162 8 -12 10 -12 10 -1 0 7 6 11 14 8 9
-4 17 1 21 12 8 27 -13 207 -29 245 -8 19 -12 37 -8 40 3 3 0 6 -6 6 -8 0 -12
-43 -11 -148z m26 -54 c-3 -8 -6 -5 -6 6 -1 11 2 17 5 13 3 -3 4 -12 1 -19z
m0 -40 c-3 -8 -6 -5 -6 6 -1 11 2 17 5 13 3 -3 4 -12 1 -19z"/>
<path d="M1035 1070 c-10 -11 -24 -20 -32 -20 -7 0 -12 -3 -11 -7 1 -5 -4 -19
-11 -32 -8 -14 -9 -26 -4 -30 6 -3 12 -13 15 -21 4 -11 9 -7 19 13 11 24 11
30 -2 38 -11 8 -9 9 7 4 13 -3 26 1 34 10 7 8 10 15 6 15 -3 0 -1 11 4 25 11
30 0 32 -25 5z"/>
<path d="M1052 1018 c-12 -12 1 -48 19 -48 6 0 8 4 5 9 -4 5 -1 11 6 13 13 5
4 38 -10 38 -4 0 -13 -5 -20 -12z"/>
<path d="M1168 955 c-3 -6 -8 -27 -12 -47 -4 -21 -10 -38 -14 -38 -4 0 -13 -9
-19 -20 -12 -17 -11 -18 10 -11 16 6 26 22 34 57 12 47 13 79 1 59z"/>
<path d="M1885 812 c-16 -2 -34 -8 -39 -13 -6 -5 -18 -9 -28 -9 -10 0 -18 -4
-18 -10 0 -6 66 -10 179 -10 l178 0 -5 25 -4 26 -117 -3 c-64 -1 -129 -4 -146
-6z m228 -19 c-7 -2 -19 -2 -25 0 -7 3 -2 5 12 5 14 0 19 -2 13 -5z m-80 -10
c-13 -2 -33 -2 -45 0 -13 2 -3 4 22 4 25 0 35 -2 23 -4z"/>
<path d="M2590 701 l0 -60 -47 -23 -46 -23 45 -3 c41 -3 45 -5 40 -27 -6 -34
25 -177 52 -239 18 -41 30 -55 52 -60 16 -4 54 -23 85 -43 63 -39 121 -55 152
-44 18 7 18 8 4 14 -22 8 -22 27 1 28 12 0 11 3 -6 10 -29 11 -42 4 -37 -20 2
-13 -2 -18 -18 -17 -13 1 -21 8 -19 15 2 9 -3 11 -13 7 -10 -3 -26 3 -39 17
-13 12 -30 23 -37 25 -8 2 -17 8 -20 13 -3 6 -12 12 -20 13 -24 5 -69 25 -69
31 0 4 5 3 10 0 6 -3 10 -1 10 6 0 8 6 7 18 -4 9 -8 29 -19 44 -22 16 -4 25
-12 21 -18 -3 -6 -1 -7 5 -3 11 6 76 -27 68 -35 -2 -2 8 -5 22 -6 l27 -1 -28
14 c-15 8 -43 26 -62 39 -20 13 -49 26 -65 30 -26 6 -31 14 -54 88 -14 45 -28
103 -31 130 -6 47 -20 62 -28 30 -4 -14 -5 -13 -6 4 -1 23 9 27 112 39 l57 6
0 -40 c0 -23 5 -44 10 -47 6 -4 7 -11 4 -17 -4 -6 1 -8 12 -6 15 2 20 14 22
57 3 47 1 53 -12 42 -9 -8 -16 -8 -20 -2 -4 6 12 15 34 21 23 6 48 14 57 17
13 5 15 1 10 -18 -3 -13 -9 -41 -13 -63 -6 -36 -5 -38 15 -31 16 5 21 2 22
-12 1 -36 26 42 33 103 9 79 -1 89 -72 74 -29 -7 -53 -18 -56 -27 -5 -13 -1
-14 26 -9 18 3 35 11 39 17 14 24 44 4 47 -30 4 -39 -6 -106 -15 -97 -10 9
-12 96 -2 96 5 0 9 7 9 16 0 8 -4 12 -10 9 -5 -3 -30 -12 -55 -19 l-45 -14
-14 31 c-15 35 -66 88 -66 68 0 -6 7 -28 15 -48 21 -49 19 -63 -7 -63 -21 1
-21 2 -5 11 25 15 10 31 -24 25 -91 -18 -84 -19 -83 16 1 35 -16 88 -28 88 -4
0 -8 -27 -8 -59z m200 -61 c0 -5 -2 -10 -4 -10 -3 0 -8 5 -11 10 -3 6 -1 10 4
10 6 0 11 -4 11 -10z m-140 -20 c0 -5 -4 -10 -10 -10 -5 0 -10 5 -10 10 0 6 5
10 10 10 6 0 10 -4 10 -10z m150 -71 c0 -6 -4 -7 -10 -4 -5 3 -10 11 -10 16 0
6 5 7 10 4 6 -3 10 -11 10 -16z m-175 -102 c2 -16 0 -26 -3 -23 -3 4 -7 14 -8
24 -1 9 -5 35 -8 57 l-6 40 11 -35 c6 -19 12 -48 14 -63z m27 -85 c-3 -10 -1
-13 6 -8 7 4 12 1 12 -9 0 -19 -16 -12 -29 14 -7 13 -6 18 4 18 7 0 11 -7 7
-15z"/>
<path d="M1435 701 c-8 -14 3 -109 16 -131 5 -9 9 -10 9 -3 0 7 7 10 17 6 14
-5 15 -1 10 25 -10 50 -43 116 -52 103z"/>
<path d="M2247 653 c-5 -8 10 -82 32 -150 10 -33 -1 -47 -13 -17 -5 13 -15 15
-54 10 -26 -4 -63 -15 -82 -24 -45 -21 -25 -26 82 -20 76 5 79 4 84 -19 4 -12
4 -30 0 -38 -3 -9 0 -15 9 -15 9 0 12 -6 9 -15 -8 -19 5 -19 30 0 15 11 17 21
11 52 -4 21 -10 32 -12 24 -5 -11 -7 -11 -14 0 -6 9 -7 1 -4 -21 l5 -35 -13
35 -14 35 41 8 c91 19 146 56 146 99 0 12 -5 15 -16 11 -9 -3 -20 0 -25 8 -7
11 -9 9 -9 -7 0 -23 -50 -54 -87 -54 -15 0 -16 -2 -3 -10 13 -8 13 -10 -1 -10
-9 0 -26 23 -42 58 -38 79 -54 105 -60 95z m208 -122 c-11 -20 -63 -39 -76
-29 -11 8 -11 9 1 5 8 -2 28 5 45 15 34 20 39 22 30 9z m-150 -11 c3 -5 1 -10
-4 -10 -6 0 -11 5 -11 10 0 6 2 10 4 10 3 0 8 -4 11 -10z m58 -37 c-7 -2 -19
-2 -25 0 -7 3 -2 5 12 5 14 0 19 -2 13 -5z"/>
<path d="M1410 532 c-31 -3 -70 -22 -70 -34 0 -4 34 -8 75 -8 56 0 75 -3 75
-13 0 -19 -52 -89 -85 -115 -34 -27 -144 -62 -192 -62 -28 0 -34 -3 -29 -16 3
-9 6 -23 7 -32 0 -10 5 -6 10 10 9 24 16 27 52 26 23 0 59 7 79 15 20 8 39 13
42 9 3 -3 6 0 6 7 0 8 7 11 15 7 8 -3 19 3 25 12 10 15 10 15 7 -3 -1 -12 -10
-19 -21 -19 -9 1 -15 -1 -12 -4 4 -3 -11 -14 -31 -23 -46 -22 -30 -25 20 -4
49 20 90 57 126 113 32 50 39 89 21 123 -11 19 -34 21 -120 11z m97 -28 c-3
-3 -12 -4 -19 -1 -8 3 -5 6 6 6 11 1 17 -2 13 -5z m12 -32 c7 -13 6 -19 -2
-19 -7 0 -13 9 -13 19 0 10 1 18 3 18 1 0 7 -8 12 -18z m-59 -126 c0 -3 -4 -8
-10 -11 -5 -3 -10 -1 -10 4 0 6 5 11 10 11 6 0 10 -2 10 -4z"/>
<path d="M2555 321 c-11 -5 -78 -19 -150 -32 -71 -12 -132 -25 -135 -28 -3 -3
-23 -7 -45 -8 -76 -4 -160 -24 -185 -44 l-25 -20 100 6 c109 7 431 57 483 76
17 6 32 15 32 19 0 15 -32 20 -47 8 -15 -12 -23 -15 -75 -22 -15 -3 -33 -8
-39 -12 -8 -4 -9 -3 -5 4 9 15 -6 16 -20 2 -7 -7 -19 -7 -35 -2 -20 8 -15 10
36 17 63 7 184 43 150 43 -11 1 -29 -3 -40 -7z m-180 -70 c-6 -5 -29 -11 -52
-13 -23 -2 -39 0 -35 4 4 3 25 8 47 11 22 2 42 4 45 5 2 1 0 -2 -5 -7z m-115
-21 c-8 -5 -26 -9 -40 -9 -23 1 -23 2 5 9 43 11 52 11 35 0z"/>
<path d="M1686 273 c-11 -11 -81 -17 -224 -17 -72 -1 -132 -4 -132 -7 0 -19
221 -20 318 -2 40 8 52 7 52 -2 0 -8 -18 -15 -42 -18 -24 -3 -63 -9 -88 -14
-25 -5 -62 -6 -82 -2 -21 3 -35 2 -32 -3 4 -5 -9 -7 -28 -3 -18 3 -44 6 -58 7
-14 0 -54 5 -89 10 -69 11 -67 28 3 28 50 0 44 6 -15 14 -42 6 -46 5 -58 -20
-6 -15 -10 -28 -9 -29 2 -1 47 -8 100 -14 213 -24 438 -2 438 43 0 10 -6 13
-17 9 -12 -5 -15 -2 -10 10 6 17 -13 24 -27 10z"/>
</g>
</svg>
