<?xml version="1.0" standalone="no"?>
<!DOCTYPE svg PUBLIC "-//W3C//DTD SVG 20010904//EN"
 "http://www.w3.org/TR/2001/REC-SVG-20010904/DTD/svg10.dtd">
<svg version="1.0" xmlns="http://www.w3.org/2000/svg"
 width="300.000000pt" height="478.000000pt" viewBox="0 0 300.000000 478.000000"
 preserveAspectRatio="xMidYMid meet">
<metadata>
Created by potrace 1.10, written by Peter Selinger 2001-2011
</metadata>
<g transform="translate(0.000000,478.000000) scale(0.100000,-0.100000)"
fill="#000000" stroke="none">
<path d="M2060 4480 c36 -12 70 -12 70 0 0 6 -21 10 -47 9 -39 -1 -43 -2 -23
-9z"/>
<path d="M1860 4474 c-143 -21 -170 -28 -160 -38 7 -7 16 -7 30 2 11 6 51 12
90 12 44 0 70 4 70 11 0 7 23 10 65 7 36 -1 65 0 65 5 0 7 -112 8 -160 1z"/>
<path d="M1005 4442 c-16 -2 -52 -11 -80 -22 -27 -10 -74 -24 -102 -30 -29 -7
-50 -16 -47 -21 3 -5 -4 -9 -15 -9 -11 0 -23 -4 -26 -10 -9 -15 18 -12 42 5
12 8 45 20 74 26 29 6 66 20 83 30 33 20 106 26 106 8 0 -6 7 -3 16 5 8 9 22
16 30 16 36 0 125 -122 119 -163 -2 -10 1 -14 8 -10 7 4 8 0 3 -13 -6 -15 -5
-17 5 -7 10 10 6 27 -22 84 -18 39 -47 82 -62 95 -29 24 -38 25 -132 16z"/>
<path d="M2112 4430 c0 -14 2 -19 5 -12 2 6 2 18 0 25 -3 6 -5 1 -5 -13z"/>
<path d="M1800 4420 c-13 -8 -12 -10 3 -10 9 0 17 5 17 10 0 12 -1 12 -20 0z"/>
<path d="M1000 4408 c0 -4 4 -8 9 -8 6 0 12 4 15 8 3 5 -1 9 -9 9 -8 0 -15 -4
-15 -9z"/>
<path d="M1613 4413 c-27 -5 -30 -18 -5 -28 30 -14 548 -18 569 -6 15 10 13
11 -14 7 -18 -2 -36 0 -39 5 -3 6 -12 5 -22 -3 -12 -10 -14 -10 -8 0 8 13 -5
16 -20 4 -5 -4 -54 -5 -109 -2 -55 3 -120 3 -145 0 -57 -6 -130 2 -112 13 6 5
17 5 22 2 6 -3 10 -1 10 4 0 11 -80 13 -127 4z"/>
<path d="M1928 4413 c7 -3 16 -2 19 1 4 3 -2 6 -13 5 -11 0 -14 -3 -6 -6z"/>
<path d="M828 4353 c6 -2 9 -10 6 -15 -4 -7 -2 -8 5 -4 13 9 5 26 -12 25 -9 0
-8 -2 1 -6z"/>
<path d="M870 4350 c-9 -6 -10 -10 -3 -10 6 0 15 5 18 10 8 12 4 12 -15 0z"/>
<path d="M930 4335 c-58 -12 -123 -25 -145 -28 -38 -6 -39 -5 -20 10 19 14 16
15 -37 9 -68 -7 -90 -15 -85 -30 8 -25 106 -19 289 20 84 18 144 18 145 2 1
-7 12 -43 26 -81 13 -37 20 -70 15 -73 -14 -9 -126 -24 -203 -28 -76 -3 -84
-5 -130 -25 -41 -18 -94 -97 -99 -146 -2 -22 -7 -62 -11 -90 -5 -37 -3 -55 8
-70 19 -25 30 -16 19 16 -5 13 -5 37 -1 54 5 16 10 56 12 88 2 32 9 63 17 70
12 10 12 9 1 -6 -8 -9 -12 -20 -9 -23 7 -6 39 43 43 65 1 9 8 15 14 14 6 -2
11 2 11 7 0 6 5 10 11 10 5 0 7 -5 3 -12 -4 -7 -3 -8 5 -4 6 4 9 11 6 16 -8
13 41 19 140 18 97 -1 130 5 158 30 16 15 18 14 24 -6 6 -23 34 -31 32 -9 -1
21 -14 48 -24 50 -6 1 -10 13 -9 27 0 14 -3 28 -8 31 -5 3 -10 17 -11 30 0 13
-8 30 -17 37 -8 8 -9 11 -2 7 6 -3 12 -4 12 -1 0 5 -65 47 -71 45 -2 -1 -51
-11 -109 -24z m-177 -280 c-3 -9 -8 -14 -10 -11 -3 3 -2 9 2 15 9 16 15 13 8
-4z"/>
<path d="M1110 4353 c0 -6 8 -17 18 -24 16 -13 16 -13 2 6 -8 11 -16 22 -17
24 -2 2 -3 0 -3 -6z"/>
<path d="M1776 4335 c-5 -19 -9 -418 -5 -495 2 -29 3 -25 10 20 10 61 12 80 9
95 -1 6 -1 91 0 190 2 99 5 170 7 157 6 -33 23 -16 23 23 0 27 -4 33 -19 32
-11 -1 -22 -11 -25 -22z"/>
<path d="M1507 4288 c-91 -113 -157 -221 -157 -255 1 -11 7 -4 15 16 11 25 20
32 34 28 17 -4 18 -2 9 13 -9 14 -8 23 5 42 10 12 27 38 38 56 22 34 47 45 29
13 -18 -35 -11 -36 15 -1 14 19 25 39 25 45 0 7 11 24 25 39 24 25 26 46 5 46
-5 0 -24 -19 -43 -42z"/>
<path d="M1830 4303 c0 -12 4 -23 10 -25 5 -2 11 -53 12 -118 1 -76 4 -105 9
-85 6 21 7 12 5 -32 -1 -34 1 -60 6 -57 19 12 -8 304 -31 327 -8 8 -11 5 -11
-10z"/>
<path d="M1181 4264 c0 -11 3 -14 6 -6 3 7 2 16 -1 19 -3 4 -6 -2 -5 -13z"/>
<path d="M1170 4235 c0 -5 5 -17 10 -25 5 -8 10 -10 10 -5 0 6 -5 17 -10 25
-5 8 -10 11 -10 5z"/>
<path d="M1226 4231 c-4 -5 0 -33 8 -63 7 -29 11 -57 7 -63 -3 -5 -10 7 -15
28 -5 20 -13 37 -17 37 -4 0 -4 -14 1 -32 7 -22 6 -36 -3 -47 -11 -14 -10 -14
6 -2 9 7 17 10 17 6 0 -5 9 0 20 10 26 23 25 46 -1 76 -11 13 -18 31 -16 41 5
19 2 24 -7 9z"/>
<path d="M1810 4200 c0 -19 3 -21 12 -12 9 9 9 15 0 24 -9 9 -12 7 -12 -12z"/>
<path d="M1201 4194 c0 -11 3 -14 6 -6 3 7 2 16 -1 19 -3 4 -6 -2 -5 -13z"/>
<path d="M1486 4162 c-16 -20 -21 -29 -10 -19 35 30 36 19 3 -28 -18 -25 -35
-45 -39 -45 -3 0 -7 -14 -8 -31 -3 -37 11 -31 28 13 8 18 22 45 32 61 16 21
34 87 25 87 -1 0 -15 -17 -31 -38z"/>
<path d="M2144 4181 c21 -23 26 -26 26 -11 0 5 -10 15 -22 21 -23 12 -23 12
-4 -10z"/>
<path d="M2052 4171 c-11 -6 -8 -10 10 -14 12 -4 49 -31 81 -62 31 -30 63 -55
70 -55 6 0 -19 30 -57 66 -38 35 -61 62 -50 58 10 -4 32 -21 48 -37 20 -21 31
-26 39 -18 8 8 6 16 -8 29 -18 16 -18 16 -6 0 8 -11 9 -18 3 -18 -6 0 -20 14
-32 30 -16 23 -29 30 -53 30 -18 0 -38 -4 -45 -9z"/>
<path d="M2180 4173 c0 -9 36 -45 74 -74 17 -12 19 -12 10 2 -13 22 -84 83
-84 72z"/>
<path d="M1104 4085 c-10 -8 -14 -14 -9 -14 6 0 19 6 29 14 11 8 15 15 10 15
-6 0 -19 -7 -30 -15z"/>
<path d="M1153 4065 c0 -8 4 -12 9 -9 4 3 8 9 8 15 0 5 -4 9 -8 9 -5 0 -9 -7
-9 -15z"/>
<path d="M1215 4070 c-3 -5 -1 -10 4 -10 6 0 11 5 11 10 0 6 -2 10 -4 10 -3 0
-8 -4 -11 -10z"/>
<path d="M885 4040 c4 -6 20 -10 37 -10 39 0 31 10 -11 15 -19 2 -29 0 -26 -5z"/>
<path d="M983 4033 c9 -2 25 -2 35 0 9 3 1 5 -18 5 -19 0 -27 -2 -17 -5z"/>
<path d="M1090 4030 c-20 -6 -21 -8 -5 -8 11 0 29 3 40 8 25 11 -1 11 -35 0z"/>
<path d="M838 4013 c-28 -18 -47 -56 -22 -46 7 3 12 10 11 16 -1 6 8 13 21 15
12 2 22 10 22 18 0 17 1 17 -32 -3z"/>
<path d="M1023 4013 c9 -2 23 -2 30 0 6 3 -1 5 -18 5 -16 0 -22 -2 -12 -5z"/>
<path d="M903 4003 c15 -2 39 -2 55 0 15 2 2 4 -28 4 -30 0 -43 -2 -27 -4z"/>
<path d="M1882 3950 c0 -14 2 -19 5 -12 2 6 2 18 0 25 -3 6 -5 1 -5 -13z"/>
<path d="M793 3931 c0 -11 4 -18 8 -15 4 2 10 -6 12 -18 l4 -23 2 23 c0 13 -5
30 -13 38 -13 12 -15 12 -13 -5z"/>
<path d="M2073 3938 c-37 -10 -40 -13 -17 -22 10 -4 13 -2 8 6 -5 7 0 9 14 6
12 -4 22 -3 22 2 0 4 25 6 55 4 31 -2 66 1 78 6 29 12 -116 10 -160 -2z"/>
<path d="M2355 3940 c20 -9 20 -9 0 -10 -11 -1 -14 -4 -7 -7 18 -7 15 -23 -5
-23 -14 0 -15 -2 -4 -9 10 -6 1 -11 -28 -16 -25 -4 -41 -12 -41 -21 0 -9 -9
-12 -30 -9 -16 3 -43 7 -60 10 -16 2 -30 1 -30 -3 0 -7 -22 -10 -100 -15 -22
-1 -40 -5 -40 -8 0 -3 -14 -3 -31 -1 -24 4 -30 2 -24 -8 5 -8 4 -11 -2 -7 -6
4 -29 0 -52 -8 -23 -8 -44 -14 -48 -14 -4 0 -9 -5 -12 -12 -2 -8 2 -10 15 -5
51 20 324 60 373 55 l34 -4 -2 -110 c-1 -60 -4 -124 -7 -141 -6 -33 10 -55 20
-29 3 8 2 16 -3 19 -4 3 -4 35 0 73 5 37 8 96 8 131 1 59 2 62 26 62 18 0 30
10 44 38 11 20 20 32 21 25 0 -6 9 -9 20 -6 20 5 20 5 -1 34 -11 16 -28 29
-37 28 -14 0 -13 -2 3 -9z m29 -26 c3 -8 2 -12 -4 -9 -6 3 -10 10 -10 16 0 14
7 11 14 -7z m-59 -63 c-8 -13 -45 -15 -45 -2 0 5 10 11 23 13 27 5 31 3 22
-11z"/>
<path d="M2295 3930 c3 -5 12 -7 20 -3 21 7 19 13 -6 13 -11 0 -18 -4 -14 -10z"/>
<path d="M746 3915 c-9 -26 -7 -32 5 -12 6 10 9 21 6 23 -2 3 -7 -2 -11 -11z"/>
<path d="M1915 3910 c-20 -9 -20 -9 0 -8 11 0 34 4 50 8 l30 8 -30 0 c-16 0
-39 -3 -50 -8z"/>
<path d="M2188 3903 c7 -3 16 -2 19 1 4 3 -2 6 -13 5 -11 0 -14 -3 -6 -6z"/>
<path d="M2005 3890 c-13 -6 -15 -9 -5 -9 8 0 22 4 30 9 18 12 2 12 -25 0z"/>
<path d="M2068 3893 c7 -3 16 -2 19 1 4 3 -2 6 -13 5 -11 0 -14 -3 -6 -6z"/>
<path d="M2110 3890 c-8 -5 -10 -10 -5 -10 6 0 17 5 25 10 8 5 11 10 5 10 -5
0 -17 -5 -25 -10z"/>
<path d="M712 3860 c0 -14 2 -19 5 -12 2 6 2 18 0 25 -3 6 -5 1 -5 -13z"/>
<path d="M1685 3865 c-71 -18 -117 -36 -110 -43 3 -3 -7 -11 -22 -18 -17 -7
-21 -13 -12 -13 9 -1 27 7 40 17 28 22 83 42 114 42 11 0 30 7 41 15 23 17 16
17 -51 0z"/>
<path d="M796 3853 c-8 -20 2 -32 13 -15 6 10 14 10 37 2 37 -15 219 -14 277
1 38 9 49 8 70 -6 43 -28 57 -81 57 -223 0 -141 -3 -148 -76 -231 -33 -36 -48
-45 -89 -51 -28 -5 -81 -4 -119 1 -38 5 -71 7 -74 4 -3 -3 1 -5 9 -5 12 0 12
-2 0 -9 -8 -5 4 -9 35 -11 136 -8 191 0 225 33 101 97 114 134 106 307 -5 133
-19 170 -74 202 -26 16 -38 17 -76 8 -62 -13 -256 -15 -289 -2 -21 9 -27 8
-32 -5z"/>
<path d="M1392 3848 c-6 -6 -12 -30 -12 -52 0 -47 -13 -128 -36 -236 -15 -67
-30 -262 -18 -217 3 9 10 15 15 12 5 -3 6 1 3 9 -3 9 -1 16 5 16 6 0 11 5 11
11 0 5 -4 7 -10 4 -5 -3 -10 1 -10 9 0 14 43 277 57 346 l7 35 6 -40 c7 -36 7
-34 8 20 1 73 -8 101 -26 83z"/>
<path d="M2371 3814 c0 -11 3 -14 6 -6 3 7 2 16 -1 19 -3 4 -6 -2 -5 -13z"/>
<path d="M2392 3805 c0 -16 2 -22 5 -12 2 9 2 23 0 30 -3 6 -5 -1 -5 -18z"/>
<path d="M908 3803 c6 -2 18 -2 25 0 6 3 1 5 -13 5 -14 0 -19 -2 -12 -5z"/>
<path d="M1640 3800 c-9 -6 -10 -10 -3 -10 6 0 15 5 18 10 8 12 4 12 -15 0z"/>
<path d="M716 3791 c-13 -20 22 -47 86 -65 65 -18 278 -22 309 -6 18 10 19 6
19 -99 0 -102 -2 -111 -25 -139 -30 -36 -55 -42 -143 -32 -37 4 -74 4 -81 0
-15 -8 107 -27 139 -22 8 1 25 3 38 4 12 1 32 13 44 25 12 13 33 24 47 24 14
1 19 3 10 6 -13 3 -15 21 -14 121 2 111 4 117 24 120 15 2 21 11 21 29 0 15
-5 23 -12 20 -7 -2 -12 -13 -11 -23 1 -10 0 -13 -3 -6 -5 10 -11 10 -29 -2
-18 -12 -50 -14 -156 -11 -74 2 -150 6 -169 10 -19 4 -40 7 -47 8 -6 0 -10 9
-8 20 3 15 1 16 -10 7 -10 -9 -14 -7 -17 7 -3 14 -5 15 -12 4z"/>
<path d="M2066 3772 c-39 -47 -56 -62 -68 -62 -10 0 -10 2 0 9 10 6 10 10 -3
21 -8 7 -18 10 -21 7 -13 -12 8 -46 37 -57 43 -18 45 -28 13 -63 -17 -19 -20
-24 -6 -13 32 27 27 9 -12 -52 -19 -28 -34 -61 -33 -72 1 -11 2 -20 4 -20 1 0
20 35 42 77 25 47 37 80 30 83 -6 4 -4 12 6 20 16 14 21 35 5 25 -5 -3 -10 -2
-10 3 0 22 16 20 44 -5 l31 -28 -27 31 c-34 37 -35 54 -3 84 29 27 31 37 8 37
-9 0 -25 -12 -37 -25z m-14 -54 c-7 -7 -12 -8 -12 -2 0 14 12 26 19 19 2 -3
-1 -11 -7 -17z"/>
<path d="M1630 3769 c-69 -20 -132 -26 -70 -6 33 10 33 11 10 14 -34 5 -93
-21 -96 -41 -2 -15 4 -16 44 -10 26 4 74 15 107 25 33 10 78 19 100 21 l40 3
-3 -80 c-2 -44 -5 -81 -7 -83 -2 -3 -16 3 -31 13 -19 12 -23 20 -15 28 15 15
14 37 -2 37 -8 0 -22 -9 -32 -20 -15 -16 -21 -18 -34 -7 -14 11 -14 10 -2 -6
10 -12 11 -21 4 -25 -60 -40 -122 -86 -118 -90 2 -3 23 7 46 22 l41 27 33 -22
c21 -15 37 -37 45 -64 7 -22 15 -34 17 -28 10 28 -17 79 -51 97 -23 12 -33 23
-29 34 5 13 8 13 19 -2 11 -16 13 -16 27 4 14 20 15 20 46 3 l32 -18 -7 -102
c-7 -104 -1 -158 16 -148 6 3 10 17 10 31 0 16 -4 23 -11 18 -8 -5 -8 -1 0 14
14 27 15 74 1 52 -7 -11 -10 -7 -10 18 0 17 4 32 10 32 5 0 7 6 4 14 -3 8 -1
17 5 20 6 4 6 18 1 35 -5 19 -4 33 3 40 7 7 12 43 12 84 0 48 4 72 12 72 6 0
15 3 19 8 15 15 -123 5 -186 -14z m40 -149 c0 -5 -4 -10 -10 -10 -5 0 -10 5
-10 10 0 6 5 10 10 10 6 0 10 -4 10 -10z"/>
<path d="M1876 3729 c-4 -22 -4 -44 -1 -50 4 -5 1 -9 -4 -9 -6 0 -11 -6 -11
-13 0 -8 7 -14 15 -14 11 0 14 15 14 64 -1 35 -2 63 -4 63 -1 0 -5 -18 -9 -41z"/>
<path d="M1073 3753 c9 -2 23 -2 30 0 6 3 -1 5 -18 5 -16 0 -22 -2 -12 -5z"/>
<path d="M1436 3743 c-3 -3 -1 -12 5 -20 7 -8 9 -28 5 -51 -4 -20 -9 -50 -12
-67 -3 -16 -7 -35 -9 -42 -2 -7 1 -15 7 -19 6 -4 8 -23 5 -48 -4 -25 -2 -35 3
-26 5 9 11 72 14 142 5 115 1 149 -18 131z"/>
<path d="M2390 3710 c0 -22 -4 -40 -10 -40 -5 0 -10 -22 -10 -48 0 -62 -24
-144 -49 -166 -12 -11 -17 -25 -14 -34 4 -10 2 -14 -2 -10 -5 5 -16 -6 -26
-22 -19 -31 -26 -34 -69 -30 -44 4 -119 65 -113 90 4 13 3 13 -6 1 -22 -33 64
-105 135 -112 37 -4 59 12 84 61 10 20 25 42 34 49 8 7 12 20 9 28 -5 12 -3
14 7 8 10 -6 12 -4 7 9 -4 10 0 33 9 51 10 22 13 45 9 65 -4 16 -3 30 2 30 4
0 9 25 11 55 2 30 1 55 -2 55 -3 0 -6 -18 -6 -40z m-40 -243 c0 -2 -10 -12
-22 -23 l-23 -19 19 23 c18 21 26 27 26 19z"/>
<path d="M2353 3715 c5 -37 17 -42 17 -7 0 18 -5 32 -10 32 -6 0 -9 -11 -7
-25z"/>
<path d="M2095 3709 c9 -24 135 -61 135 -40 0 6 -12 11 -27 11 -16 0 -37 7
-47 15 -10 8 -23 12 -28 9 -5 -3 -16 0 -24 7 -12 9 -13 9 -9 -2z"/>
<path d="M1421 3684 c0 -11 3 -14 6 -6 3 7 2 16 -1 19 -3 4 -6 -2 -5 -13z"/>
<path d="M1841 3683 c-1 -6 -4 -20 -7 -30 -5 -17 -5 -17 6 0 6 10 9 23 6 30
-3 9 -5 9 -5 0z"/>
<path d="M1947 3613 c-25 -37 -48 -79 -52 -93 l-6 -25 20 25 c11 14 21 29 21
33 0 5 5 5 12 1 7 -4 8 -3 4 5 -4 7 6 34 24 62 49 76 29 69 -23 -8z"/>
<path d="M2127 3669 c7 -7 15 -10 18 -7 3 3 -2 9 -12 12 -14 6 -15 5 -6 -5z"/>
<path d="M1559 3653 c-12 -15 -12 -16 8 -11 12 3 22 3 21 -1 -2 -19 4 -21 19
-6 14 14 14 18 2 26 -21 13 -35 11 -50 -8z"/>
<path d="M2001 3637 c-13 -21 -12 -21 5 -5 10 10 16 20 13 22 -3 3 -11 -5 -18
-17z"/>
<path d="M2085 3634 c30 -24 97 -54 123 -54 38 0 24 18 -20 25 -24 4 -55 16
-70 26 -32 23 -62 25 -33 3z"/>
<path d="M2170 3630 c0 -5 9 -10 21 -10 11 0 17 5 14 10 -3 6 -13 10 -21 10
-8 0 -14 -4 -14 -10z"/>
<path d="M1847 3564 c-2 -15 -1 -38 2 -53 l8 -26 5 27 c3 15 1 25 -3 22 -5 -3
-6 9 -3 26 4 16 4 30 1 30 -2 0 -7 -12 -10 -26z"/>
<path d="M1583 3541 c1 -16 5 -18 19 -10 10 5 18 12 18 15 0 3 -4 2 -10 -1 -5
-3 -10 -1 -10 4 0 6 -4 11 -9 11 -6 0 -9 -9 -8 -19z"/>
<path d="M2073 3538 c-11 -13 -39 -51 -63 -86 -32 -46 -48 -61 -59 -56 -9 3
-25 9 -35 12 -21 6 -17 -7 12 -41 14 -16 14 -22 -1 -65 -24 -68 -21 -97 5 -40
l21 46 50 -54 c27 -30 54 -54 60 -54 6 0 -12 23 -41 51 -52 50 -76 99 -54 107
7 2 12 8 12 14 0 11 51 81 63 86 4 2 7 11 7 20 0 8 3 12 7 9 4 -4 -4 -25 -16
-47 -34 -62 -17 -47 23 19 20 32 43 64 51 71 13 11 13 15 3 21 -19 12 -22 11
-45 -13z"/>
<path d="M2164 3543 c16 -60 18 -65 28 -55 6 6 4 20 -6 41 -18 34 -30 41 -22
14z"/>
<path d="M1597 3508 c-26 -17 -46 -33 -43 -36 6 -5 83 45 92 60 7 11 5 10 -49
-24z"/>
<path d="M1421 3514 c0 -11 3 -14 6 -6 3 7 2 16 -1 19 -3 4 -6 -2 -5 -13z"/>
<path d="M2227 3523 c-48 -80 -49 -85 -29 -105 19 -19 19 -19 32 12 7 17 10
34 6 37 -4 4 -9 -3 -13 -15 -6 -23 -18 -29 -28 -12 -3 6 1 13 10 16 8 4 14 13
13 22 -2 8 5 16 15 18 24 3 31 10 22 23 -7 13 -22 14 -28 4z"/>
<path d="M1811 3510 c0 -8 4 -24 9 -35 9 -20 9 -20 9 0 0 11 -4 27 -9 35 -9
13 -10 13 -9 0z"/>
<path d="M1620 3491 c0 -5 3 -11 8 -14 4 -2 1 -2 -6 -1 -14 4 -68 -75 -64 -94
2 -8 -1 -19 -6 -25 -6 -7 -13 -30 -16 -52 l-6 -40 15 30 c8 17 14 37 15 45 1
25 27 53 42 44 7 -4 5 2 -5 13 -9 11 -14 23 -10 27 11 11 54 -46 47 -63 -15
-40 -33 -106 -28 -110 2 -3 10 10 16 27 l12 32 33 -32 c18 -17 36 -28 40 -25
4 4 2 12 -5 19 -7 7 -8 17 -2 29 7 12 6 19 -4 22 -10 4 -12 -1 -8 -16 5 -21 5
-21 -19 -5 -21 14 -24 22 -21 67 3 44 1 50 -13 45 -15 -6 -14 -1 4 34 26 51
26 52 1 52 -11 0 -20 -4 -20 -9z m3 -51 c-3 -11 -9 -17 -15 -14 -5 3 -4 12 3
20 16 19 18 18 12 -6z"/>
<path d="M1416 3434 c-4 -9 -4 -19 -1 -22 2 -3 7 3 11 12 4 9 4 19 1 22 -2 3
-7 -3 -11 -12z"/>
<path d="M2135 3420 c10 -11 20 -20 23 -20 3 0 -3 9 -13 20 -10 11 -20 20 -23
20 -3 0 3 -9 13 -20z"/>
<path d="M1525 3410 c-3 -5 1 -10 9 -10 8 0 18 5 21 10 3 6 -1 10 -9 10 -8 0
-18 -4 -21 -10z"/>
<path d="M2056 3405 c-4 -11 -13 -33 -21 -50 -21 -48 -25 -65 -15 -65 6 0 10
10 10 22 0 20 4 18 40 -17 22 -21 40 -35 40 -29 0 6 -16 25 -35 44 -32 31 -34
35 -19 51 9 10 14 28 12 41 -4 22 -5 22 -12 3z"/>
<path d="M1426 3374 c-4 -20 -5 -38 -3 -40 3 -3 8 11 11 32 4 20 5 38 3 40 -3
3 -8 -11 -11 -32z"/>
<path d="M1815 3385 c0 -14 3 -25 8 -25 4 0 7 11 7 25 0 14 -3 25 -7 25 -5 0
-8 -11 -8 -25z"/>
<path d="M1852 3380 c0 -19 2 -27 5 -17 2 9 2 25 0 35 -3 9 -5 1 -5 -18z"/>
<path d="M1692 3364 c21 -21 40 -35 44 -31 10 9 -9 29 -48 51 l-33 19 37 -39z"/>
<path d="M1872 3375 c0 -16 2 -22 5 -12 2 9 2 23 0 30 -3 6 -5 -1 -5 -18z"/>
<path d="M1585 3361 c-3 -5 -1 -12 5 -16 5 -3 10 1 10 9 0 18 -6 21 -15 7z"/>
<path d="M1750 3318 c0 -7 5 -20 10 -28 8 -12 10 -11 10 7 0 12 -4 25 -10 28
-5 3 -10 0 -10 -7z"/>
<path d="M985 3161 c-105 -49 -170 -131 -178 -227 -8 -81 22 -134 102 -186 38
-24 55 -28 114 -28 61 0 67 2 53 15 -8 8 -23 15 -33 15 -15 0 -16 -2 -3 -10
12 -8 10 -10 -8 -10 -16 0 -21 4 -16 13 5 7 0 6 -11 -3 -10 -8 -16 -10 -12 -4
4 7 -4 14 -21 16 -62 11 -82 24 -120 83 -48 74 -26 183 50 252 33 30 118 77
118 65 0 -5 -7 -13 -16 -16 -9 -4 -14 -9 -11 -13 4 -3 19 -1 34 5 15 6 48 16
72 22 33 9 41 14 30 21 -24 15 -102 10 -144 -10z"/>
<path d="M1570 3161 c0 -5 -8 -12 -17 -14 -10 -2 0 -3 22 0 33 3 48 -2 78 -24
20 -15 34 -34 32 -41 -3 -8 0 -10 7 -6 8 5 9 2 5 -9 -3 -10 -2 -17 3 -17 6 0
10 -9 10 -19 0 -11 5 -23 11 -26 12 -8 2 58 -13 88 -23 44 -138 101 -138 68z"/>
<path d="M1450 3110 c-13 -9 -13 -11 0 -20 24 -16 60 -12 60 6 0 13 9 15 49
12 27 -1 47 0 44 5 -6 11 -136 8 -153 -3z"/>
<path d="M1005 3100 c-4 -6 -11 -7 -17 -4 -6 4 -8 3 -5 -3 3 -5 -10 -25 -30
-43 -52 -49 -64 -84 -48 -136 7 -24 11 -45 8 -47 -2 -3 1 -8 8 -13 9 -5 10 -1
5 17 -3 13 -9 36 -12 51 -9 38 30 115 68 134 16 9 27 18 24 21 -3 3 2 12 12
19 9 8 12 14 5 14 -6 0 -15 -5 -18 -10z"/>
<path d="M1529 3081 c14 -9 7 -31 -10 -31 -6 0 -7 5 -4 10 19 31 -23 0 -103
-76 -94 -87 -112 -119 -112 -189 0 -40 17 -15 26 40 8 51 14 61 26 44 7 -11 8
-9 4 5 -4 13 5 29 32 55 82 79 135 112 71 44 l-34 -37 50 41 c28 23 57 53 64
67 8 14 21 27 30 29 9 3 0 5 -19 6 -24 0 -30 -2 -21 -8z"/>
<path d="M1592 3078 c2 -6 10 -14 16 -16 7 -2 10 2 6 12 -7 18 -28 22 -22 4z"/>
<path d="M1614 2898 c1 -83 2 -144 4 -135 2 10 8 15 13 12 5 -3 6 1 3 9 -3 9
-1 16 5 16 12 0 12 21 -1 144 -8 71 -7 90 4 97 9 6 8 9 -8 9 -20 0 -20 -5 -20
-152z"/>
<path d="M1475 2965 l-30 -25 32 16 c18 8 35 19 38 25 11 17 -10 9 -40 -16z"/>
<path d="M1717 2970 c-3 -14 -2 -29 3 -34 15 -15 20 -3 11 29 l-7 30 -7 -25z"/>
<path d="M1691 2964 c0 -11 3 -14 6 -6 3 7 2 16 -1 19 -3 4 -6 -2 -5 -13z"/>
<path d="M1439 2901 c-76 -85 -80 -91 -55 -91 8 0 17 -8 19 -17 3 -10 5 -1 6
19 0 20 7 43 14 50 6 8 28 31 46 51 19 20 30 37 24 37 -5 0 -30 -22 -54 -49z"/>
<path d="M1730 2900 c-1 -8 -2 -33 -1 -55 1 -22 -2 -53 -8 -68 -6 -16 -7 -26
-1 -22 13 8 22 63 17 115 -2 25 -5 38 -7 30z"/>
<path d="M886 2877 c3 -10 9 -15 12 -12 3 3 0 11 -7 18 -10 9 -11 8 -5 -6z"/>
<path d="M1080 2861 c0 -5 6 -12 13 -14 9 -4 9 -7 0 -14 -9 -7 -9 -24 2 -78
13 -62 40 -135 50 -135 4 0 -19 86 -34 123 -6 16 -11 40 -11 55 0 25 1 25 15
6 12 -17 14 -17 15 -2 0 30 -19 68 -35 68 -8 0 -15 -4 -15 -9z"/>
<path d="M945 2851 c-3 -5 0 -13 6 -17 17 -10 109 -12 109 -2 0 5 -15 8 -32 7
-18 -2 -43 3 -55 9 -13 7 -24 8 -28 3z"/>
<path d="M1143 2813 c1 -17 6 -31 11 -30 6 1 17 -25 25 -57 9 -33 22 -61 30
-64 8 -3 12 -1 9 4 -3 5 -13 36 -23 69 -11 33 -22 62 -25 65 -4 3 -12 14 -18
25 -10 18 -11 17 -9 -12z"/>
<path d="M1706 2825 c-3 -8 -1 -15 4 -15 6 0 10 7 10 15 0 8 -2 15 -4 15 -2 0
-6 -7 -10 -15z"/>
<path d="M1690 2790 c0 -5 5 -10 11 -10 5 0 7 5 4 10 -3 6 -8 10 -11 10 -2 0
-4 -4 -4 -10z"/>
<path d="M1048 2773 c7 -3 16 -2 19 1 4 3 -2 6 -13 5 -11 0 -14 -3 -6 -6z"/>
<path d="M1140 2706 c0 -9 7 -16 16 -16 9 0 14 5 12 12 -6 18 -28 21 -28 4z"/>
<path d="M1547 2654 c-4 -4 -48 -14 -99 -24 -51 -9 -92 -21 -91 -27 1 -6 -18
-13 -44 -17 -25 -3 -85 -22 -133 -41 -48 -19 -95 -35 -104 -35 -10 0 -14 -4
-11 -10 3 -5 -3 -10 -14 -10 -11 0 -23 -5 -27 -12 -8 -13 -9 -13 111 29 44 15
83 33 87 38 5 6 8 5 8 -2 0 -7 4 -13 10 -13 5 0 7 6 4 14 -4 11 6 18 35 26 22
6 43 9 48 8 17 -4 53 14 47 24 -4 6 -3 8 3 5 5 -3 32 1 59 9 27 8 71 15 97 16
26 1 42 5 35 9 -7 4 4 9 28 12 l39 4 -41 1 c-22 1 -44 -1 -47 -4z"/>
<path d="M1680 2653 c28 -11 65 -44 75 -68 7 -15 15 -21 23 -17 17 11 -16 79
-42 86 -28 8 -76 6 -56 -1z"/>
<path d="M1633 2633 c15 -2 37 -2 50 0 12 2 0 4 -28 4 -27 0 -38 -2 -22 -4z"/>
<path d="M1550 2610 c0 -5 5 -10 10 -10 6 0 10 5 10 10 0 6 -4 10 -10 10 -5 0
-10 -4 -10 -10z"/>
<path d="M1628 2613 c7 -3 16 -2 19 1 4 3 -2 6 -13 5 -11 0 -14 -3 -6 -6z"/>
<path d="M1593 2593 c9 -2 23 -2 30 0 6 3 -1 5 -18 5 -16 0 -22 -2 -12 -5z"/>
<path d="M1518 2583 c6 -2 18 -2 25 0 6 3 1 5 -13 5 -14 0 -19 -2 -12 -5z"/>
<path d="M1685 2562 c-11 -2 -24 -8 -29 -13 -14 -13 -29 -11 -20 2 5 8 -13 10
-62 5 -37 -3 -70 -10 -74 -15 -3 -5 -23 -12 -45 -14 -39 -5 -213 -48 -328 -82
-31 -9 -65 -15 -75 -12 -11 2 -6 7 18 14 l35 11 -42 1 c-31 1 -49 -5 -67 -23
-42 -38 -27 -64 19 -33 11 8 40 15 64 16 24 1 52 6 61 11 21 11 91 27 148 35
40 5 42 4 43 -23 1 -15 5 -38 10 -52 6 -17 7 -8 3 31 l-5 55 53 16 c70 22 164
38 217 38 l42 0 -2 -87 -2 -88 28 -3 c26 -3 27 -2 12 13 -14 13 -16 29 -11 82
4 45 2 63 -5 58 -6 -3 -11 1 -11 9 0 11 9 16 29 16 20 0 29 5 27 15 -3 19 -7
22 -31 17z m-665 -132 c0 -5 -5 -10 -11 -10 -5 0 -7 5 -4 10 3 6 8 10 11 10 2
0 4 -4 4 -10z"/>
<path d="M1781 2534 c0 -11 3 -14 6 -6 3 7 2 16 -1 19 -3 4 -6 -2 -5 -13z"/>
<path d="M1731 2504 c0 -11 3 -14 6 -6 3 7 2 16 -1 19 -3 4 -6 -2 -5 -13z"/>
<path d="M1783 2475 c0 -22 2 -30 4 -17 2 12 2 30 0 40 -3 9 -5 -1 -4 -23z"/>
<path d="M1140 2479 c0 -5 5 -7 10 -4 6 3 10 8 10 11 0 2 -4 4 -10 4 -5 0 -10
-5 -10 -11z"/>
<path d="M1731 2464 c0 -11 3 -14 6 -6 3 7 2 16 -1 19 -3 4 -6 -2 -5 -13z"/>
<path d="M1309 2459 c-1 -2 -2 -25 -3 -51 -1 -30 2 -44 8 -38 10 10 11 79 1
88 -3 3 -6 3 -6 1z"/>
<path d="M1732 2420 c0 -14 2 -19 5 -12 2 6 2 18 0 25 -3 6 -5 1 -5 -13z"/>
<path d="M1762 2410 c0 -14 2 -19 5 -12 2 6 2 18 0 25 -3 6 -5 1 -5 -13z"/>
<path d="M1782 2410 c0 -14 2 -19 5 -12 2 6 2 18 0 25 -3 6 -5 1 -5 -13z"/>
<path d="M860 2394 c0 -9 5 -12 12 -8 7 4 8 3 4 -4 -4 -6 0 -25 9 -42 9 -17
25 -60 36 -95 11 -35 25 -67 31 -71 8 -5 9 -1 4 12 -4 10 -13 42 -21 69 -7 28
-18 64 -24 80 l-11 30 20 -25 c15 -19 20 -21 20 -9 0 19 -52 79 -69 79 -6 0
-11 -7 -11 -16z"/>
<path d="M1371 2388 c-1 -16 -8 -28 -18 -31 -14 -4 -12 -5 5 -6 12 0 22 -7 23
-13 0 -7 4 -4 8 7 5 11 5 22 1 25 -4 3 -10 14 -13 25 -4 16 -5 14 -6 -7z"/>
<path d="M1490 2389 c-12 -8 -10 -9 9 -4 16 5 21 4 17 -4 -8 -13 13 -14 32 -2
10 6 8 10 -10 14 -30 9 -30 9 -48 -4z"/>
<path d="M1610 2380 c-8 -5 -10 -10 -5 -10 6 0 17 5 25 10 8 5 11 10 5 10 -5
0 -17 -5 -25 -10z"/>
<path d="M1450 2370 c8 -5 22 -9 30 -9 10 0 8 3 -5 9 -27 12 -43 12 -25 0z"/>
<path d="M1746 2362 c-4 -13 -22 -32 -39 -44 l-32 -20 30 7 c16 4 33 12 37 18
4 6 10 8 14 4 4 -4 1 -15 -7 -25 -8 -10 -4 -7 9 6 12 13 22 33 21 45 -1 20 -2
20 -9 -3 -7 -25 -7 -25 -11 5 -4 29 -5 29 -13 7z"/>
<path d="M940 2365 c0 -5 11 -22 24 -38 13 -15 29 -47 35 -72 6 -24 16 -47 22
-51 8 -4 9 1 4 17 -25 83 -38 119 -43 115 -2 -3 -13 5 -23 17 -10 12 -18 18
-19 12z"/>
<path d="M1525 2350 c3 -5 8 -10 11 -10 2 0 4 5 4 10 0 6 -5 10 -11 10 -5 0
-7 -4 -4 -10z"/>
<path d="M1255 2328 c-27 -12 -51 -26 -53 -30 -2 -4 -12 -8 -23 -8 -10 0 -19
-4 -19 -10 0 -15 9 -12 75 20 32 16 63 26 68 23 5 -3 7 -21 5 -39 -2 -19 -1
-34 3 -34 4 0 9 23 11 50 2 29 -1 50 -7 50 -5 -1 -32 -10 -60 -22z"/>
<path d="M1530 2308 c0 -14 -9 -18 -37 -19 -21 0 -50 -3 -65 -5 -18 -3 -28 0
-28 8 0 6 -6 3 -14 -8 -8 -11 -10 -21 -5 -25 11 -6 1 -39 -11 -39 -5 0 -6 -10
-2 -22 5 -21 4 -22 -11 -9 -9 7 -17 12 -18 10 -7 -35 -6 -37 9 -31 15 5 16 4
2 -14 -14 -18 -14 -18 3 -5 24 19 47 64 47 93 0 21 5 23 63 26 34 1 76 6 92
11 27 8 28 9 10 17 -11 4 -23 12 -27 18 -5 7 -8 4 -8 -6z"/>
<path d="M948 2274 c6 -12 8 -24 5 -28 -3 -3 1 -6 10 -6 22 0 21 6 -4 33 -21
21 -21 21 -11 1z"/>
<path d="M1340 2259 c0 -5 5 -7 10 -4 6 3 10 8 10 11 0 2 -4 4 -10 4 -5 0 -10
-5 -10 -11z"/>
<path d="M1093 2250 c-38 -16 -26 -27 36 -33 40 -5 76 -2 111 9 66 19 58 30
-11 15 -56 -12 -77 -8 -38 8 20 8 16 10 -26 10 -27 0 -60 -4 -72 -9z"/>
<path d="M1705 2247 c-4 -9 -5 -33 -3 -52 2 -21 -1 -36 -8 -39 -7 -3 -15 -18
-19 -35 -5 -23 -13 -31 -38 -37 -18 -4 -38 -7 -46 -5 -7 1 -11 -2 -8 -6 3 -5
-7 -8 -24 -7 -16 1 -26 -2 -23 -7 3 -5 0 -9 -5 -9 -6 0 -11 4 -11 9 0 6 -19 4
-42 -3 -24 -7 -65 -19 -93 -26 -60 -15 -279 -22 -309 -10 -18 7 -16 9 14 10
32 1 33 2 13 12 -26 13 -109 -1 -106 -17 6 -27 312 -35 415 -11 37 8 97 20
135 26 103 16 125 27 156 77 27 44 33 89 17 128 -7 18 -8 19 -15 2z"/>
<path d="M1264 2205 c-24 -36 -14 -38 19 -4 20 21 24 29 13 29 -9 0 -23 -11
-32 -25z"/>
<path d="M1603 2210 c-1 -11 2 -20 8 -20 5 0 9 9 9 20 0 11 -4 20 -8 20 -4 0
-8 -9 -9 -20z"/>
<path d="M1640 2216 c0 -17 16 -30 23 -19 3 5 -1 14 -9 21 -12 10 -14 10 -14
-2z"/>
<path d="M1578 2163 c7 -3 16 -2 19 1 4 3 -2 6 -13 5 -11 0 -14 -3 -6 -6z"/>
<path d="M1461 2149 c-24 -5 -46 -11 -49 -14 -7 -7 74 3 118 14 35 9 35 9 5 9
-16 0 -50 -4 -74 -9z"/>
<path d="M1635 2150 c-16 -7 -17 -9 -3 -9 9 -1 20 4 23 9 7 11 7 11 -20 0z"/>
<path d="M1560 2130 c-11 -8 -7 -9 15 -4 37 8 45 14 19 14 -10 0 -26 -5 -34
-10z"/>
<path d="M1368 2113 c12 -2 30 -2 40 0 9 3 -1 5 -23 4 -22 0 -30 -2 -17 -4z"/>
<path d="M1576 2111 c-4 -5 3 -7 14 -4 23 6 26 13 6 13 -8 0 -17 -4 -20 -9z"/>
<path d="M1318 2103 c7 -3 16 -2 19 1 4 3 -2 6 -13 5 -11 0 -14 -3 -6 -6z"/>
<path d="M1205 2093 c-33 -2 -69 -7 -80 -12 -11 -5 -27 -12 -35 -15 -8 -2 12
-2 45 2 33 3 81 6 107 6 25 1 44 4 42 8 -3 4 10 6 28 3 29 -4 30 -4 8 4 -14 5
-32 9 -40 8 -8 0 -42 -2 -75 -4z"/>
<path d="M1365 2090 c-16 -7 -17 -9 -3 -9 9 -1 20 4 23 9 7 11 7 11 -20 0z"/>
<path d="M1165 2040 c-29 -8 -29 -8 8 -7 20 1 37 5 37 9 0 9 -3 9 -45 -2z"/>
<path d="M1318 2043 c7 -3 16 -2 19 1 4 3 -2 6 -13 5 -11 0 -14 -3 -6 -6z"/>
<path d="M1235 1870 c-3 -5 2 -10 12 -10 11 0 28 -7 39 -16 18 -14 18 -15 -4
-4 -43 21 -34 3 30 -64 52 -54 70 -66 93 -65 21 1 24 3 10 6 -47 10 -51 14
-32 28 11 7 14 16 8 19 -5 4 -14 -1 -19 -10 -7 -13 -14 -9 -41 25 -36 45 -32
54 8 19 23 -22 23 -22 -3 14 -41 55 -87 81 -101 58z"/>
<path d="M1320 1862 c0 -5 7 -15 15 -22 8 -7 15 -8 15 -2 0 5 -7 15 -15 22 -8
7 -15 8 -15 2z"/>
<path d="M1360 1842 c0 -12 89 -92 101 -92 16 0 10 7 -46 55 -30 25 -55 42
-55 37z"/>
<path d="M1470 1726 c0 -7 61 -13 65 -6 2 3 -12 7 -31 8 -19 2 -34 1 -34 -2z"/>
<path d="M1588 1723 c7 -3 16 -2 19 1 4 3 -2 6 -13 5 -11 0 -14 -3 -6 -6z"/>
<path d="M1620 1723 c0 -3 8 -12 18 -19 16 -13 16 -14 -3 -7 -17 6 -18 4 -8
-9 7 -8 10 -18 6 -21 -3 -4 3 -7 14 -7 16 0 19 5 15 29 -2 18 -11 31 -23 34
-10 3 -19 3 -19 0z"/>
<path d="M1530 1688 c-19 -18 -49 -42 -66 -53 -30 -18 -77 -49 -179 -118 -123
-83 -179 -129 -265 -217 -52 -53 -100 -99 -107 -101 -8 -3 -8 -24 1 -86 6 -45
14 -84 16 -87 12 -11 189 -29 340 -36 91 -4 181 -12 200 -18 23 -8 120 -12
279 -12 234 0 249 1 328 25 46 14 83 28 83 31 0 10 -81 -5 -97 -18 -24 -20
-562 -23 -619 -3 -28 9 -85 14 -177 14 -74 0 -152 4 -173 10 -47 13 -134 25
-152 22 -17 -3 24 38 57 56 23 13 23 14 4 10 -16 -3 -23 0 -23 9 0 8 5 14 10
14 6 0 10 5 10 11 0 19 -20 -2 -35 -37 -18 -44 -35 -36 -33 15 0 21 -2 43 -6
49 -4 7 0 15 8 18 9 3 13 10 10 15 -5 8 11 13 42 12 7 0 11 10 9 23 -1 13 1
21 5 19 4 -2 38 25 76 61 38 36 62 63 54 59 -12 -6 -12 -5 1 9 9 10 23 18 31
19 8 2 35 19 60 40 25 20 50 37 56 37 6 0 17 8 24 18 7 9 19 18 27 20 22 5 71
42 71 53 0 6 5 7 10 4 6 -3 10 1 10 9 0 9 16 18 43 24 26 6 33 10 18 11 -22 1
-20 3 15 27 21 15 42 32 46 38 11 17 62 -15 66 -42 2 -15 -1 -23 -10 -21 -25
3 -48 -1 -48 -9 0 -4 18 -8 40 -9 37 -2 40 0 40 26 0 18 -11 38 -33 59 l-33
33 -34 -33z m-435 -348 c-10 -11 -22 -20 -28 -20 -5 0 1 11 14 24 28 29 40 25
14 -4z"/>
<path d="M1200 1700 c-28 -6 -19 -8 40 -9 41 0 82 4 90 9 18 12 -75 12 -130 0z"/>
<path d="M1130 1680 c0 -5 6 -10 14 -10 8 0 23 -3 33 -6 10 -3 7 2 -7 10 -30
18 -40 20 -40 6z"/>
<path d="M1226 1658 c7 -11 34 -10 34 1 0 6 -9 9 -19 8 -11 0 -17 -5 -15 -9z"/>
<path d="M1077 1643 c-43 -18 -44 -39 -1 -36 16 1 98 2 182 2 106 0 152 4 147
11 -4 7 -54 10 -136 9 -72 0 -133 2 -136 5 -4 3 4 6 16 6 12 0 19 4 16 10 -9
14 -43 11 -88 -7z"/>
<path d="M1646 1633 c-6 -14 -5 -15 5 -6 7 7 10 15 7 18 -3 3 -9 -2 -12 -12z"/>
<path d="M1560 1580 c-8 -5 -15 -15 -15 -21 0 -7 -6 -14 -14 -17 -9 -3 -11 0
-5 9 4 8 -5 5 -22 -6 -44 -28 -113 -89 -87 -76 12 6 25 16 28 21 4 6 10 8 15
5 4 -3 15 6 24 20 9 14 21 25 27 25 7 0 6 -6 -2 -17 -16 -19 -7 -15 46 22 42
29 46 61 5 35z"/>
<path d="M1410 1509 l-35 -30 38 26 c33 24 43 35 34 35 -1 0 -18 -14 -37 -31z"/>
<path d="M1332 1464 c-12 -8 -22 -20 -22 -26 0 -7 6 -5 13 4 6 8 21 20 32 26
11 6 15 12 10 12 -6 0 -21 -7 -33 -16z"/>
<path d="M1430 1460 c-14 -11 -32 -20 -40 -21 -10 0 -11 -2 -3 -5 7 -3 29 6
50 20 21 14 33 26 28 26 -6 0 -21 -9 -35 -20z"/>
<path d="M1314 1408 c-10 -13 -12 -17 -4 -10 8 6 19 12 25 12 5 0 -10 -19 -35
-41 l-45 -41 51 39 c28 21 48 40 43 41 -5 2 -7 8 -3 13 11 19 -14 8 -32 -13z"/>
<path d="M1240 1370 c-14 -10 -25 -23 -25 -28 0 -4 -28 -34 -62 -66 -34 -32
-61 -63 -60 -69 1 -7 -3 -11 -8 -10 -6 1 -11 -7 -11 -17 0 -18 1 -18 18 -3 11
9 17 22 14 29 -5 13 24 44 40 44 6 0 20 14 33 31 13 17 29 28 36 25 7 -2 19 3
27 12 8 9 8 13 1 9 -6 -4 -13 -1 -16 5 -2 7 12 23 32 35 20 12 29 22 21 22 -8
1 -26 -8 -40 -19z"/>
<path d="M1039 1233 c-13 -16 -12 -17 4 -4 9 7 17 15 17 17 0 8 -8 3 -21 -13z"/>
<path d="M1022 1143 c-6 -2 -10 -8 -7 -13 6 -10 45 -1 45 11 0 10 -17 11 -38
2z"/>
<path d="M1074 1132 c12 -19 147 -35 251 -29 73 5 113 3 148 -8 62 -18 519
-24 525 -6 2 6 8 9 13 6 5 -3 29 1 55 10 25 8 50 13 55 10 5 -4 9 -1 9 4 0 14
-87 14 -95 1 -3 -5 -25 -10 -48 -11 -31 -1 -36 -3 -19 -8 25 -7 -324 -4 -423
4 -33 3 -139 9 -235 14 -96 6 -190 13 -209 17 -22 4 -32 3 -27 -4z"/>
<path d="M1338 1073 c7 -3 16 -2 19 1 4 3 -2 6 -13 5 -11 0 -14 -3 -6 -6z"/>
<path d="M1135 1030 c19 -8 123 -14 114 -6 -2 2 -33 6 -69 9 -38 3 -57 1 -45
-3z"/>
<path d="M1046 868 c-12 -59 -15 -118 -6 -118 6 0 10 7 10 16 0 14 3 14 15 4
13 -11 15 -6 15 31 0 52 -9 89 -21 89 -5 0 -11 -10 -13 -22z"/>
<path d="M1980 858 c0 -9 -3 -18 -7 -20 -13 -5 -45 -69 -39 -75 3 -4 13 2 21
13 10 13 14 15 15 5 0 -11 3 -11 15 -1 17 14 20 57 5 80 -8 13 -10 13 -10 -2z"/>
<path d="M1731 834 c-6 -14 -11 -31 -11 -39 0 -8 -4 -16 -10 -16 -5 -1 -14 -2
-19 -3 -5 0 -13 -4 -17 -8 -4 -5 -17 -8 -28 -8 -17 0 -18 -2 -7 -9 9 -6 22 -6
32 0 25 13 28 12 22 -13 -4 -21 -4 -21 9 2 12 21 21 25 68 27 30 1 78 9 105
17 l50 16 -55 -6 c-30 -3 -67 -7 -82 -10 -26 -5 -28 -3 -28 30 0 44 -13 53
-29 20z m11 -46 c-7 -7 -12 -8 -12 -2 0 14 12 26 19 19 2 -3 -1 -11 -7 -17z"/>
<path d="M2086 791 c108 -9 130 -45 98 -160 -5 -16 -4 -22 4 -17 6 3 13 -2 15
-11 3 -10 5 18 6 63 1 73 -1 84 -24 108 -22 24 -30 26 -97 24 l-73 -1 71 -6z"/>
<path d="M1140 771 c-16 -5 -3 -7 40 -7 43 0 56 2 40 7 -14 4 -32 7 -40 7 -8
0 -26 -3 -40 -7z"/>
<path d="M1257 769 c8 -8 19 -8 40 -1 28 10 28 10 -11 11 -29 1 -37 -2 -29
-10z"/>
<path d="M2107 770 c4 -5 17 -10 28 -12 11 -2 20 -8 20 -15 0 -6 3 -15 8 -19
4 -4 7 2 7 14 0 11 -5 24 -11 27 -15 10 -62 14 -52 5z"/>
<path d="M1090 750 c-8 -5 -24 -10 -35 -10 -11 0 -42 -11 -70 -24 -55 -27 -49
-35 8 -11 48 20 47 20 47 -18 0 -33 -2 -34 -60 -50 -72 -20 -96 -21 -55 -2
l30 13 -47 1 c-30 1 -52 -5 -62 -15 -21 -20 -21 -21 12 -24 63 -5 113 0 141
15 17 8 34 15 39 15 4 0 7 -54 4 -121 -2 -66 -1 -137 4 -157 l7 -37 7 35 c4
19 11 44 15 55 5 14 4 16 -3 6 -6 -9 -9 26 -8 108 0 66 -2 121 -6 121 -5 0 -8
16 -8 35 0 28 5 38 26 47 21 10 27 9 35 -3 13 -21 11 -67 -3 -72 -8 -3 -6 -6
5 -6 13 -1 16 -7 11 -26 -4 -15 -1 -32 7 -42 12 -14 12 -16 -1 -8 -12 7 -13 6
-4 -6 6 -8 14 -27 18 -43 13 -55 17 -18 5 53 -7 39 -9 74 -6 78 4 3 35 5 69 4
53 -1 144 14 113 19 -39 6 -49 10 -56 22 -7 10 -9 9 -9 -4 0 -15 -7 -17 -45
-11 -29 4 -50 1 -60 -7 -12 -10 -16 -9 -21 6 -17 56 -29 73 -44 64z"/>
<path d="M1158 743 c6 -2 18 -2 25 0 6 3 1 5 -13 5 -14 0 -19 -2 -12 -5z"/>
<path d="M1261 734 c0 -11 3 -14 6 -6 3 7 2 16 -1 19 -3 4 -6 -2 -5 -13z"/>
<path d="M1911 687 c-15 -68 -16 -176 -2 -190 8 -8 11 2 11 38 0 28 2 85 5
128 2 42 3 77 1 77 -1 0 -8 -24 -15 -53z"/>
<path d="M1550 720 c-13 -9 -7 -14 13 -11 4 0 7 -3 7 -9 0 -5 24 -10 53 -9
l52 1 -35 13 -35 13 35 4 c27 4 22 5 -20 6 -30 1 -62 -3 -70 -8z"/>
<path d="M1995 707 c-4 -10 -14 -16 -21 -13 -8 3 -14 1 -14 -4 0 -6 7 -10 16
-10 12 0 14 -7 10 -27 -15 -79 -15 -101 -1 -107 12 -4 15 7 15 64 l0 70 69 0
c61 0 69 2 74 21 5 18 2 20 -16 15 -12 -3 -28 -6 -35 -6 -7 0 -10 -4 -7 -10 4
-6 -7 -10 -27 -10 -25 0 -29 3 -18 10 9 6 10 10 3 10 -6 0 -15 -5 -19 -12 -5
-8 -10 -6 -15 8 -6 18 -7 18 -14 1z"/>
<path d="M1676 655 c-22 -214 -29 -260 -42 -292 -10 -24 -14 -51 -10 -77 6
-35 14 -46 56 -73 l49 -32 138 -1 c76 0 156 4 178 10 22 5 82 10 132 10 154 0
204 36 216 155 5 47 4 54 -4 33 -6 -16 -16 -28 -22 -28 -8 0 -7 -4 2 -9 10 -7
11 -15 3 -37 -5 -16 -14 -28 -20 -27 -7 2 -9 -4 -5 -14 4 -10 2 -14 -5 -9 -6
3 -18 -4 -26 -16 -14 -20 -25 -23 -118 -25 -57 -2 -133 -8 -169 -14 -37 -7
-103 -10 -148 -7 -45 3 -77 1 -70 -3 7 -4 -4 -7 -24 -6 -21 0 -37 5 -37 10 0
4 -4 5 -10 2 -5 -3 -10 -1 -10 5 0 6 -4 8 -10 5 -5 -3 -10 -1 -10 4 0 6 -5 11
-11 11 -11 0 -23 11 -49 44 -12 16 -12 18 -1 11 11 -6 12 -5 5 6 -11 17 -12
52 -1 60 4 3 10 23 13 44 2 21 7 42 11 48 6 10 7 21 11 170 l2 77 34 0 c33 0
34 0 29 -42 -2 -24 0 -86 5 -138 l10 -95 0 120 c1 66 1 128 1 139 1 17 7 18
66 11 44 -4 65 -3 65 4 0 6 -12 11 -27 12 -16 0 -65 1 -110 2 l-82 2 -5 -50z"/>
<path d="M910 671 c0 -5 9 -7 20 -4 11 3 20 7 20 9 0 2 -9 4 -20 4 -11 0 -20
-4 -20 -9z"/>
<path d="M2161 670 c-1 -8 -4 -26 -7 -40 -5 -19 -4 -22 5 -14 7 6 11 24 8 40
-2 16 -5 22 -6 14z"/>
<path d="M2081 643 c1 -16 4 -41 8 -58 l7 -30 7 40 c10 60 9 75 -8 75 -10 0
-15 -9 -14 -27z"/>
<path d="M1137 476 c-10 -25 -9 -38 3 -31 6 4 7 -9 4 -34 -3 -21 -2 -41 3 -44
12 -8 15 60 5 98 -7 24 -9 26 -15 11z"/>
<path d="M1730 456 c0 -14 4 -27 8 -30 5 -3 6 8 4 25 -5 35 -12 38 -12 5z"/>
<path d="M2275 410 c-11 -33 -13 -70 -5 -70 7 0 22 82 15 88 -2 2 -6 -6 -10
-18z"/>
<path d="M1098 403 c7 -3 16 -2 19 1 4 3 -2 6 -13 5 -11 0 -14 -3 -6 -6z"/>
<path d="M1747 370 c-9 -22 -17 -48 -16 -58 0 -9 9 5 20 32 24 59 21 83 -4 26z"/>
<path d="M1257 374 c-9 -9 1 -24 16 -24 7 0 6 4 -3 11 -11 7 -6 8 20 4 19 -3
49 -1 65 4 26 8 22 9 -31 10 -33 1 -64 -2 -67 -5z"/>
<path d="M1706 365 c-9 -26 -7 -32 5 -12 6 10 9 21 6 23 -2 3 -7 -2 -11 -11z"/>
<path d="M1160 336 c-95 -36 -155 -56 -172 -56 -10 0 -18 -4 -18 -9 0 -5 -10
-11 -22 -13 -21 -3 -21 -4 4 -9 15 -4 25 -3 23 1 -2 4 25 14 61 23 36 9 72 23
80 31 8 9 34 20 57 26 58 15 65 18 42 19 -11 0 -36 -6 -55 -13z"/>
<path d="M1671 324 c0 -11 3 -14 6 -6 3 7 2 16 -1 19 -3 4 -6 -2 -5 -13z"/>
<path d="M2048 323 c12 -2 30 -2 40 0 9 3 -1 5 -23 4 -22 0 -30 -2 -17 -4z"/>
<path d="M2153 323 c15 -2 37 -2 50 0 12 2 0 4 -28 4 -27 0 -38 -2 -22 -4z"/>
<path d="M2148 303 c12 -2 30 -2 40 0 9 3 -1 5 -23 4 -22 0 -30 -2 -17 -4z"/>
<path d="M2235 300 c-17 -8 -16 -9 7 -7 15 2 30 6 34 10 10 10 -17 8 -41 -3z"/>
<path d="M1754 289 c-2 -4 46 -6 106 -5 61 0 110 4 110 7 0 9 -210 7 -216 -2z"/>
<path d="M1289 277 c-73 -18 -106 -27 -174 -46 -78 -21 -230 -38 -182 -20 15
6 27 15 27 21 0 6 -6 8 -14 5 -8 -3 -43 -9 -78 -13 -35 -4 -57 -9 -50 -11 6
-3 10 -9 6 -14 -5 -9 49 -13 146 -10 48 2 192 31 301 61 20 6 52 10 71 10 19
0 42 6 51 13 15 10 11 12 -26 12 -24 0 -59 -3 -78 -8z m-402 -73 c-3 -3 -12
-4 -19 -1 -8 3 -5 6 6 6 11 1 17 -2 13 -5z"/>
<path d="M1760 260 c8 -5 20 -10 25 -10 6 0 3 5 -5 10 -8 5 -19 10 -25 10 -5
0 -3 -5 5 -10z"/>
<path d="M1878 253 c6 -2 18 -2 25 0 6 3 1 5 -13 5 -14 0 -19 -2 -12 -5z"/>
<path d="M1036 238 c3 -4 11 -5 19 -1 21 7 19 12 -4 10 -11 0 -18 -5 -15 -9z"/>
</g>
</svg>
